<svg xmlns="http://www.w3.org/2000/svg" xmlns:cc="http://web.resource.org/cc/" xmlns:svg="http://www.w3.org/2000/svg" id="svg5560" width="54.716" height="243.437" version="1.0"><metadata id="metadata5565"/><g id="layer1" transform="translate(-241.214, -213.501)"><g id="g5542" transform="translate(-505.802, 139.945)"><rect id="rect4253" width="10.102" height="242.437" x="769.736" y="74.056" style="opacity:.535519;fill:#666;fill-opacity:1;stroke:#000;stroke-opacity:1"/><g id="g5232" transform="matrix(-1, 0, 0, 1, 1549.23, 0)"><rect style="opacity:.535519;fill:#000;fill-opacity:1;stroke:#000;stroke-opacity:1" id="rect5226" width="16.668" height="3.03" x="752.564" y="87.188"/><rect style="opacity:.535519;fill:#e6e6e6;fill-opacity:1;stroke:#000;stroke-opacity:1" id="rect5228" width="3.03" height="26.264" x="748.018" y="75.571"/></g><g id="g5236" transform="matrix(-1, 0, 0, 1, 1549.25, 32.9924)"><rect style="opacity:.535519;fill:#000;fill-opacity:1;stroke:#000;stroke-opacity:1" id="rect5238" width="16.668" height="3.03" x="752.564" y="87.188"/><rect style="opacity:.535519;fill:#e6e6e6;fill-opacity:1;stroke:#000;stroke-opacity:1" id="rect5240" width="3.03" height="26.264" x="748.018" y="75.571"/></g><g id="g5242" transform="translate(-0.48229, 0.313456)"><rect style="opacity:.535519;fill:#000;fill-opacity:1;stroke:#000;stroke-opacity:1" id="rect5244" width="16.668" height="3.03" x="752.564" y="87.188"/><rect style="opacity:.535519;fill:#e6e6e6;fill-opacity:1;stroke:#000;stroke-opacity:1" id="rect5246" width="3.03" height="26.264" x="748.018" y="75.571"/></g><g id="g5248" transform="translate(-0.50263, 33.3059)"><rect style="opacity:.535519;fill:#000;fill-opacity:1;stroke:#000;stroke-opacity:1" id="rect5250" width="16.668" height="3.03" x="752.564" y="87.188"/><rect style="opacity:.535519;fill:#e6e6e6;fill-opacity:1;stroke:#000;stroke-opacity:1" id="rect5252" width="3.03" height="26.264" x="748.018" y="75.571"/></g><path id="path5254" d="M 776.80727 152.84756 A 7.0710678 12.12183 0 1 1 762.66514,152.84756 A 7.0710678 12.12183 0 1 1 776.80727 152.84756 z" transform="translate(-3.01015, 3.03046)" style="opacity:1;fill:gray;fill-opacity:1;stroke:#000;stroke-opacity:1"/><path id="path5256" d="M 776.80727 152.84756 A 7.0710678 12.12183 0 1 1 762.66514,152.84756 A 7.0710678 12.12183 0 1 1 776.80727 152.84756 z" transform="translate(11.1117, -46.467)" style="opacity:1;fill:gray;fill-opacity:1;stroke:#000;stroke-opacity:1"/><path id="path5258" d="M 776.80727 152.84756 A 7.0710678 12.12183 0 1 1 762.66514,152.84756 A 7.0710678 12.12183 0 1 1 776.80727 152.84756 z" transform="translate(11.132, 3.03045)" style="opacity:1;fill:gray;fill-opacity:1;stroke:#000;stroke-opacity:1"/></g></g></svg>