<svg xmlns="http://www.w3.org/2000/svg" xmlns:svg="http://www.w3.org/2000/svg" xmlns:xlink="http://www.w3.org/1999/xlink" id="svg2" width="122.87" height="185.933" version="1.0"><defs id="defs4"><linearGradient id="linearGradient3237"><stop style="stop-color:#9c9c9c;stop-opacity:1" id="stop3239" offset="0"/><stop id="stop3245" offset=".5" style="stop-color:#dcdcdc;stop-opacity:1"/><stop style="stop-color:#a8a8a8;stop-opacity:1" id="stop3241" offset="1"/></linearGradient><linearGradient id="linearGradient2911"><stop style="stop-color:#afc1e1;stop-opacity:1" id="stop2913" offset="0"/><stop style="stop-color:#5c90e9;stop-opacity:1" id="stop2915" offset="1"/></linearGradient><linearGradient id="linearGradient3229" x1="157.912" x2="151.232" y1="149.283" y2="223.882" gradientTransform="translate(-89.3787,74.9628)" gradientUnits="userSpaceOnUse" xlink:href="#linearGradient2911"/><linearGradient id="linearGradient3243" x1="59.831" x2="200.765" y1="241.519" y2="179.294" gradientTransform="translate(-89.3787,74.9628)" gradientUnits="userSpaceOnUse" xlink:href="#linearGradient3237"/></defs><metadata id="metadata7"/><g id="layer1" transform="translate(-160.08253,-45.555814)"><g id="g3261" transform="translate(89.3787,-74.9628)"><rect id="rect2176" width="122.143" height="185.205" x="71.068" y="120.882" rx="22.211" ry="22.211" style="fill:#000;fill-opacity:1;fill-rule:evenodd;stroke:#000;stroke-width:.72746599;stroke-linecap:butt;stroke-linejoin:miter;marker:none;stroke-miterlimit:4;stroke-dasharray:none;stroke-dashoffset:0;stroke-opacity:1;visibility:visible;display:inline;overflow:visible"/><rect style="fill:url(#linearGradient3243);fill-opacity:1;fill-rule:evenodd;stroke:#000;stroke-width:.72746599;stroke-linecap:butt;stroke-linejoin:miter;marker:none;stroke-miterlimit:4;stroke-dasharray:none;stroke-dashoffset:0;stroke-opacity:1;visibility:visible;display:inline;overflow:visible" id="rect2856" width="119.347" height="182.732" x="72.215" y="121.869" rx="20.445" ry="20.445"/><rect id="rect3235" width="115.097" height="178.121" x="74.34" y="124.175" rx="18.259" ry="18.259" style="fill:#fff;fill-opacity:1;fill-rule:evenodd;stroke:#a1a1a1;stroke-width:.72746599;stroke-linecap:butt;stroke-linejoin:miter;marker:none;stroke-miterlimit:4;stroke-dasharray:none;stroke-dashoffset:0;stroke-opacity:1;visibility:visible;display:inline;overflow:visible"/><rect id="rect2839" width="94.628" height="125.898" x="84.825" y="135.949" rx="6.952" ry="6.952" style="fill:#e3e3e3;fill-opacity:1;fill-rule:evenodd;stroke:#a1a1a1;stroke-width:.72746599;stroke-linecap:butt;stroke-linejoin:miter;marker:none;stroke-miterlimit:4;stroke-dasharray:none;stroke-dashoffset:0;stroke-opacity:1;visibility:visible;display:inline;overflow:visible"/><rect style="fill:#000;fill-opacity:1;fill-rule:evenodd;stroke:#a4a4a4;stroke-width:.72746599;stroke-linecap:butt;stroke-linejoin:miter;marker:none;stroke-miterlimit:4;stroke-dasharray:none;stroke-dashoffset:0;stroke-opacity:1;visibility:visible;display:inline;overflow:visible" id="rect2841" width="81.335" height="111.105" x="91.471" y="142.067" rx="1.72" ry="1.72"/><rect id="rect2843" width="78.438" height="79.937" x="92.92" y="143.582" rx="0" ry="0" style="fill:url(#linearGradient3229);fill-opacity:1;fill-rule:evenodd;stroke:#000;stroke-width:.72746599;stroke-linecap:butt;stroke-linejoin:miter;marker:none;stroke-miterlimit:4;stroke-dasharray:none;stroke-dashoffset:0;stroke-opacity:1;visibility:visible;display:inline;overflow:visible"/><g id="g3257"><path style="fill:none;fill-opacity:1;fill-rule:evenodd;stroke:#a2a2a2;stroke-width:.72746599;stroke-linecap:butt;stroke-linejoin:miter;marker:none;stroke-miterlimit:4;stroke-dasharray:none;stroke-dashoffset:0;stroke-opacity:1;visibility:visible;display:inline;overflow:visible" id="rect2875" d="M 73.133883,261.125 L 73.133883,279.3125 L 74.196383,279.3125 C 79.236007,279.3125 83.290129,275.25837 83.290133,270.21875 C 83.290133,265.17913 79.236011,261.125 74.196383,261.125 L 73.133883,261.125 z"/><rect style="fill:#164532;fill-opacity:1;fill-rule:evenodd;stroke:none;stroke-width:.72746599;stroke-linecap:butt;stroke-linejoin:miter;marker:none;stroke-miterlimit:4;stroke-dasharray:none;stroke-dashoffset:0;stroke-opacity:1;visibility:visible;display:inline;overflow:visible" id="rect2884" width="1.899" height="5.495" x="78.096" y="267.471"/></g><g id="g3095" transform="translate(-3.8147e-6,0)"><rect id="rect2847" width="86.07" height="21.24" x="89.104" y="272.728" rx="10.62" ry="10.62" style="fill:#fff;fill-opacity:1;fill-rule:evenodd;stroke:#a1a1a1;stroke-width:1.10249996;stroke-linecap:butt;stroke-linejoin:miter;marker:none;stroke-miterlimit:4;stroke-dasharray:none;stroke-dashoffset:0;stroke-opacity:1;visibility:visible;display:inline;overflow:visible"/><path id="rect2845" d="M 129.26628,274.47992 L 135.01173,274.47992 C 139.92459,274.47992 143.87971,278.43504 143.87971,283.34789 C 143.87971,288.26075 139.92459,292.21587 135.01173,292.21587 L 129.26628,292.21587 C 124.35342,292.21587 120.39831,288.26075 120.39831,283.34789 C 120.39831,278.43504 124.35342,274.47992 129.26628,274.47992 z M 127.49374,268.95493 L 136.78426,268.95493 C 144.72845,268.95493 151.12396,275.37419 151.12396,283.34789 C 151.12396,291.3216 144.72845,297.74086 136.78426,297.74086 L 127.49374,297.74086 C 119.54955,297.74086 113.15404,291.3216 113.15404,283.34789 C 113.15404,275.37419 119.54955,268.95493 127.49374,268.95493 z" style="fill:#fff;fill-opacity:1;fill-rule:evenodd;stroke:#a1a1a1;stroke-width:1.10249996;stroke-linecap:butt;stroke-linejoin:miter;marker:none;stroke-miterlimit:4;stroke-dasharray:none;stroke-dashoffset:0;stroke-opacity:1;visibility:visible;display:inline;overflow:visible"/><path style="opacity:1;fill:none;fill-opacity:1;fill-rule:evenodd;stroke:#a1a1a1;stroke-width:1.17324996;stroke-linecap:butt;stroke-linejoin:miter;marker:none;stroke-miterlimit:4;stroke-dasharray:none;stroke-dashoffset:0;stroke-opacity:1;visibility:visible;display:inline;overflow:visible" id="path2873" d="M 108.45498,282.88821 A 8.7876797,8.7876797 0 1 1 90.879625,282.88821 A 8.7876797,8.7876797 0 1 1 108.45498,282.88821 z" transform="matrix(0.939699,0,0,0.939699,5.30354,17.5183)"/><path id="path2896" d="M 108.45498,282.88821 A 8.7876797,8.7876797 0 1 1 90.879625,282.88821 A 8.7876797,8.7876797 0 1 1 108.45498,282.88821 z" transform="matrix(0.939699,0,0,0.939699,70.8358,17.5183)" style="opacity:1;fill:none;fill-opacity:1;fill-rule:evenodd;stroke:#a1a1a1;stroke-width:1.17324996;stroke-linecap:butt;stroke-linejoin:miter;marker:none;stroke-miterlimit:4;stroke-dasharray:none;stroke-dashoffset:0;stroke-opacity:1;visibility:visible;display:inline;overflow:visible"/></g><g id="g3076" transform="translate(-138.895,0)"><g id="g3042" transform="translate(-8.39025,0)"><path id="path3044" d="M 251.74434,230.02968 L 247.09281,226.05818 L 242.23893,230.0407 C 243.96351,230.02965 244.22246,229.99149 244.24454,230.64788 L 244.24454,233.6507 C 244.24454,234.04213 244.55966,234.35725 244.95109,234.35725 L 249.19037,234.35725 C 249.5818,234.35725 249.89692,234.04213 249.89692,233.6507 L 249.89692,230.64788" style="fill:none;fill-opacity:1;fill-rule:evenodd;stroke:#a1a1a1;stroke-width:.72750002;stroke-linecap:round;stroke-linejoin:round;marker:none;stroke-miterlimit:4;stroke-dasharray:none;stroke-dashoffset:0;stroke-opacity:1;visibility:visible;display:inline;overflow:visible"/><rect style="opacity:1;fill:#a1a1a1;fill-opacity:1;fill-rule:evenodd;stroke:#a1a1a1;stroke-width:.72750002;stroke-linecap:round;stroke-linejoin:round;marker:none;stroke-miterlimit:4;stroke-dasharray:none;stroke-dashoffset:0;stroke-opacity:1;visibility:visible;display:inline;overflow:visible" id="rect3046" width="1.126" height="2.252" x="246.429" y="232.105"/></g><g id="g3048" transform="matrix(0.847116,0,0,0.847116,36.3844,36.8906)"><path style="fill:none;fill-rule:evenodd;stroke:#a1a1a1;stroke-width:1.18048px;stroke-linecap:square;stroke-linejoin:miter;stroke-opacity:1" id="path3050" d="M 243.32987,241.79807 L 234.14142,241.79807"/><path id="path3052" d="M 239.3129,244.33722 L 235.75172,244.33722" style="fill:none;fill-rule:evenodd;stroke:#a1a1a1;stroke-width:1.18048px;stroke-linecap:square;stroke-linejoin:miter;stroke-opacity:1"/><path style="fill:none;fill-rule:evenodd;stroke:#a1a1a1;stroke-width:1.18048px;stroke-linecap:square;stroke-linejoin:miter;stroke-opacity:1" id="path3054" d="M 239.3129,246.43478 L 235.75172,246.43478"/><path id="path3056" d="M 239.48636,248.88562 L 234.09189,248.88562 L 234.09189,243.45405" style="fill:none;fill-rule:evenodd;stroke:#a1a1a1;stroke-width:1.18048px;stroke-linecap:square;stroke-linejoin:round;stroke-opacity:1"/><path style="opacity:1;fill:#a1a1a1;fill-opacity:1;fill-rule:evenodd;stroke:#a1a1a1;stroke-width:.858796;stroke-linecap:square;stroke-linejoin:round;marker:none;stroke-miterlimit:4;stroke-dasharray:none;stroke-dashoffset:0;stroke-opacity:1;visibility:visible;display:inline;overflow:visible" id="path3058" d="M 241.24351,243.98638 L 241.24351,246.04888 L 240.43101,246.04888 L 241.96226,247.58013 L 243.49351,246.04888 L 242.64976,246.04888 L 242.64976,243.98638 L 241.24351,243.98638 z"/></g><path id="path3060" d="M 245.43681,225.79037 L 245.43681,252.3742" style="fill:none;fill-rule:evenodd;stroke:#a1a1a1;stroke-width:1px;stroke-linecap:butt;stroke-linejoin:miter;stroke-opacity:1"/><path style="fill:none;fill-rule:evenodd;stroke:#a1a1a1;stroke-width:1px;stroke-linecap:butt;stroke-linejoin:miter;stroke-opacity:1" id="path3062" d="M 298.33953,225.79037 L 298.33953,252.3742"/><g id="g3064" transform="matrix(0.842444,-0.225732,0.225732,0.842444,-7.44249,107.397)"><path style="opacity:1;fill:none;fill-opacity:1;fill-rule:evenodd;stroke:#a1a1a1;stroke-width:1.16912997;stroke-linecap:square;stroke-linejoin:round;marker:none;stroke-miterlimit:4;stroke-dasharray:none;stroke-dashoffset:0;stroke-opacity:1;visibility:visible;display:inline;overflow:visible" id="path3066" d="M 296.70563,243.16701 A 2.9365864,2.9365864 0 1 1 290.83246,243.16701 A 2.9365864,2.9365864 0 1 1 296.70563,243.16701 z" transform="matrix(0.81203,0,0,0.81203,68.3571,45.3769)"/><path style="fill:none;fill-rule:evenodd;stroke:#a1a1a1;stroke-width:1.14657998px;stroke-linecap:round;stroke-linejoin:miter;stroke-opacity:1" id="path3068" d="M 304.01429,244.66842 L 300.87837,246.47894"/></g><path style="fill:#a1a1a1;fill-opacity:1;fill-rule:evenodd;stroke:none;stroke-width:.228;stroke-linecap:butt;stroke-linejoin:miter;marker:none;stroke-miterlimit:4;stroke-dashoffset:0;stroke-opacity:1;visibility:visible;display:inline;overflow:visible" id="path3070" d="M 304.43441,227.375 C 302.53928,227.375 301.00444,228.90984 301.00443,230.80498 C 301.00443,232.67076 302.49414,234.18843 304.34866,234.23495 L 305.6349,231.97689 L 306.17798,232.2913 L 305.77781,230.69064 L 304.14858,231.09081 L 304.72024,231.43381 L 303.54833,233.40604 C 302.71926,232.84537 302.17634,231.87806 302.17634,230.80498 C 302.17635,229.33317 303.23075,228.15568 304.60591,227.83233 L 304.83804,227.41022 C 304.59686,227.39462 304.55861,227.375 304.43441,227.375 z M 305.15315,234.23495 C 307.04829,234.23495 308.58312,232.70011 308.58312,230.80498 C 308.58312,228.93918 307.09342,227.42152 305.23891,227.375 L 303.95265,229.63306 L 303.40958,229.31865 L 303.80975,230.91931 L 305.43898,230.51915 L 304.86732,230.17615 L 306.03923,228.2039 C 306.8683,228.76457 307.41122,229.73189 307.41122,230.80498 C 307.41121,232.27677 306.35681,233.45426 304.98165,233.77762 L 304.74953,234.19973 C 304.99069,234.21533 305.02895,234.23495 305.15315,234.23495 z"/><path id="path3072" d="M 275.27017,248.65837 L 275.27017,252.84071" style="fill:none;fill-rule:evenodd;stroke:#a1a1a1;stroke-width:1px;stroke-linecap:butt;stroke-linejoin:miter;stroke-opacity:1"/><path style="fill:none;fill-rule:evenodd;stroke:#a1a1a1;stroke-width:1px;stroke-linecap:butt;stroke-linejoin:miter;stroke-opacity:1" id="path3074" d="M 275.27017,225.34016 L 275.27017,227.98729"/></g></g></g></svg>