<svg xmlns="http://www.w3.org/2000/svg" xmlns:svg="http://www.w3.org/2000/svg" id="svg2160" width="993.725" height="310.893" version="1.0"><g id="layer1" transform="translate(-31.7463, -366.985)"><g id="g2386"><path style="fill:none;fill-rule:evenodd;stroke:#000;stroke-width:1.15842px;stroke-linecap:butt;stroke-linejoin:miter;stroke-opacity:1" id="path2175" d="M 32.325515,677.29858 L 1024.8925,677.29858"/><path style="opacity:0;fill:#e6e6e6;fill-opacity:1;fill-rule:nonzero;stroke:none;stroke-width:2;stroke-linecap:round;stroke-linejoin:round;stroke-miterlimit:4;stroke-dasharray:2,2;stroke-dashoffset:0;stroke-opacity:1" id="path2177" d="M 268.79664,628.66538 A 35.70126,35.70126 0 1 1 273.83521,598.26515 L 239.54393,608.19934 z" transform="translate(34.5496)"/><path style="fill:#ff0;fill-opacity:1;fill-rule:nonzero;stroke:#000;stroke-width:1.77992;stroke-linecap:round;stroke-linejoin:round;stroke-miterlimit:4;stroke-dashoffset:0;stroke-opacity:1" id="rect3179" d="M 89.0625,367.875 C 69.163607,367.875 53.15625,383.75548 53.15625,403.46875 L 53.15625,609.15625 C 53.15625,628.86953 69.163611,644.75 89.0625,644.75 L 975.40625,644.75 C 995.30514,644.75 1011.3125,628.86955 1011.3125,609.15625 L 1011.3125,403.46875 C 1011.3125,402.85271 1011.3121,402.23319 1011.2813,401.625 L 1011.2813,552 C 1011.2805,553.76879 1009.8625,555.1875 1008.0938,555.1875 L 990.90625,555.1875 C 989.13747,555.18752 987.6875,553.76879 987.6875,552 L 987.6875,399.5625 C 987.6875,397.79372 989.13746,396.375 990.90625,396.375 L 1008.0938,396.375 C 1009.3388,396.375 1010.3796,397.08915 1010.9063,398.125 C 1008.321,380.9619 993.47184,367.875 975.40625,367.875 L 89.0625,367.875 z M 846,388.46875 L 897.875,388.46875 C 898.5113,388.46875 899.11956,388.53428 899.71875,388.65625 C 900.30819,388.77624 900.8956,388.96112 901.4375,389.1875 C 901.44596,389.19107 901.4603,389.18391 901.46875,389.1875 C 902.01063,389.41591 902.51759,389.70788 903,390.03125 C 903.97724,390.69034 904.84091,391.55401 905.5,392.53125 C 905.82337,393.01366 906.11534,393.52062 906.34375,394.0625 C 906.34734,394.07095 906.34018,394.08529 906.34375,394.09375 C 906.57013,394.63565 906.75501,395.22307 906.875,395.8125 C 906.9024,395.94709 906.9159,396.08303 906.9375,396.21875 C 907.6293,391.82302 911.40379,388.46876 916,388.46875 L 967.875,388.46875 C 972.96536,388.46875 977.06251,392.56592 977.0625,397.65625 L 977.0625,616.53125 C 977.06251,621.62157 972.96535,625.71873 967.875,625.71875 L 916,625.71875 C 911.38062,625.71872 907.57016,622.36596 906.90625,617.9375 C 906.87063,618.14482 906.85874,618.35754 906.8125,618.5625 C 906.69252,619.09427 906.55109,619.63312 906.34375,620.125 C 906.23319,620.38729 906.10226,620.65719 905.96875,620.90625 C 905.96211,620.9185 905.94419,620.92528 905.9375,620.9375 C 905.7964,621.19791 905.66477,621.44319 905.5,621.6875 C 905.00568,622.42043 904.39885,623.06421 903.71875,623.625 C 902.58525,624.55966 901.21674,625.22631 899.71875,625.53125 C 899.11956,625.65323 898.51129,625.71875 897.875,625.71875 L 846,625.71875 C 845.37436,625.71875 844.74612,625.64927 844.15625,625.53125 C 844.14649,625.52926 844.13475,625.53327 844.125,625.53125 C 843.23571,625.35022 842.3994,625.04152 841.625,624.625 C 841.61734,624.62085 841.6014,624.62917 841.59375,624.625 C 841.08026,624.34677 840.60429,623.99242 840.15625,623.625 C 840.15031,623.62011 840.13092,623.62991 840.125,623.625 C 839.66523,623.24588 839.28415,622.83582 838.90625,622.375 C 838.71932,622.1483 838.53977,621.93181 838.375,621.6875 C 838.205,621.43544 838.05102,621.17541 837.90625,620.90625 C 837.76515,620.64585 837.64716,620.39998 837.53125,620.125 C 837.29555,619.56583 837.12204,618.98496 837,618.375 C 836.88198,617.78513 836.8125,617.15689 836.8125,616.53125 L 836.8125,397.65625 C 836.8125,397.01995 836.87803,396.41169 837,395.8125 C 837.06297,395.50315 837.12571,395.20327 837.21875,394.90625 C 837.30505,394.62758 837.41993,394.36021 837.53125,394.09375 C 837.53493,394.08503 837.52755,394.07121 837.53125,394.0625 C 837.64716,393.78752 837.76515,393.54165 837.90625,393.28125 C 838.05132,393.01352 838.20493,392.75069 838.375,392.5 C 838.53977,392.25569 838.71932,392.0392 838.90625,391.8125 C 839.6626,390.89524 840.56851,390.12884 841.625,389.5625 C 841.8854,389.4214 842.13127,389.30341 842.40625,389.1875 C 842.89813,388.98016 843.43698,388.83873 843.96875,388.71875 C 844.61866,388.57397 845.30518,388.46875 846,388.46875 z M 169.15625,389.03125 L 272.09375,389.03125 C 277.1841,389.03125 281.28125,393.12841 281.28125,398.21875 L 281.28125,464.53125 C 281.28124,469.62158 277.18409,473.71875 272.09375,473.71875 L 169.15625,473.71875 C 164.06591,473.71876 159.96875,469.62159 159.96875,464.53125 L 159.96875,398.21875 C 159.96875,393.12839 164.06591,389.03125 169.15625,389.03125 z M 305.3125,389.03125 L 408.28125,389.03125 C 413.37158,389.03125 417.46875,393.12841 417.46875,398.21875 L 417.46875,464.53125 C 417.46876,469.62158 413.37159,473.71875 408.28125,473.71875 L 305.3125,473.71875 C 300.22218,473.71876 296.125,469.62159 296.125,464.53125 L 296.125,398.21875 C 296.125,393.12839 300.22216,389.03125 305.3125,389.03125 z M 441.46875,389.03125 L 544.4375,389.03125 C 549.52786,389.03125 553.625,393.12841 553.625,398.21875 L 553.625,464.53125 C 553.62501,469.62158 549.52784,473.71875 544.4375,473.71875 L 441.46875,473.71875 C 436.37843,473.71876 432.28125,469.62159 432.28125,464.53125 L 432.28125,398.21875 C 432.28125,393.12839 436.37841,389.03125 441.46875,389.03125 z M 577.65625,389.03125 L 680.59375,389.03125 C 685.68408,389.03125 689.78125,393.12841 689.78125,398.21875 L 689.78125,464.53125 C 689.78123,469.62158 685.68409,473.71875 680.59375,473.71875 L 577.65625,473.71875 C 572.56589,473.71876 568.4375,469.62159 568.4375,464.53125 L 568.4375,398.21875 C 568.4375,393.12839 572.56591,389.03125 577.65625,389.03125 z M 713.8125,389.03125 L 816.78125,389.03125 C 821.87158,389.03125 825.96875,393.12841 825.96875,398.21875 L 825.96875,464.53125 C 825.96873,469.62158 821.87159,473.71875 816.78125,473.71875 L 713.8125,473.71875 C 708.72214,473.71876 704.625,469.62159 704.625,464.53125 L 704.625,398.21875 C 704.625,393.12839 708.72216,389.03125 713.8125,389.03125 z"/><path style="opacity:1;fill:#4d4d4d;fill-opacity:1;fill-rule:nonzero;stroke:#000;stroke-width:2.00004;stroke-linecap:round;stroke-linejoin:round;stroke-miterlimit:4;stroke-dasharray:none;stroke-dashoffset:0;stroke-opacity:1" id="path3167" d="M 177.12517,635.35797 A 27.063858,27.063858 0 1 1 229.40853,635.35797" transform="matrix(2.19149, 0, 0, 2.19149, -207.641, -748.676)"/><path style="opacity:1;fill:#000;fill-opacity:1;fill-rule:nonzero;stroke:none;stroke-width:2;stroke-linecap:round;stroke-linejoin:round;stroke-miterlimit:4;stroke-dasharray:2,2;stroke-dashoffset:0;stroke-opacity:1" id="path3152" d="M 230.3307 628.35333 A 27.063858 27.063858 0 1 1 176.20299,628.35333 A 27.063858 27.063858 0 1 1 230.3307 628.35333 z" transform="matrix(1.80851, 0, 0, 1.80851, -129.794, -508.03)"/><path style="opacity:1;fill:#ccc;fill-opacity:1;fill-rule:nonzero;stroke:none;stroke-width:2;stroke-linecap:round;stroke-linejoin:round;stroke-miterlimit:4;stroke-dasharray:2,2;stroke-dashoffset:0;stroke-opacity:1" id="path3156" d="M 230.3307 628.35333 A 27.063858 27.063858 0 1 1 176.20299,628.35333 A 27.063858 27.063858 0 1 1 230.3307 628.35333 z" transform="matrix(0.787234, 0, 0, 0.787234, 77.7979, 133.692)"/><path style="opacity:0;fill:#e6e6e6;fill-opacity:1;fill-rule:nonzero;stroke:none;stroke-width:2;stroke-linecap:round;stroke-linejoin:round;stroke-miterlimit:4;stroke-dasharray:2,2;stroke-dashoffset:0;stroke-opacity:1" id="path3169" d="M 268.79664,628.66538 A 35.70126,35.70126 0 1 1 273.83521,598.26515 L 239.54393,608.19934 z" transform="translate(560.207)"/><path style="opacity:1;fill:#4d4d4d;fill-opacity:1;fill-rule:nonzero;stroke:#000;stroke-width:2.00004;stroke-linecap:round;stroke-linejoin:round;stroke-miterlimit:4;stroke-dasharray:none;stroke-dashoffset:0;stroke-opacity:1" id="path3171" d="M 177.12517,635.35797 A 27.063858,27.063858 0 1 1 229.40853,635.35797" transform="matrix(2.19149, 0, 0, 2.19149, 318.017, -748.676)"/><path style="opacity:1;fill:#000;fill-opacity:1;fill-rule:nonzero;stroke:none;stroke-width:2;stroke-linecap:round;stroke-linejoin:round;stroke-miterlimit:4;stroke-dasharray:2,2;stroke-dashoffset:0;stroke-opacity:1" id="path3173" d="M 230.3307 628.35333 A 27.063858 27.063858 0 1 1 176.20299,628.35333 A 27.063858 27.063858 0 1 1 230.3307 628.35333 z" transform="matrix(1.80851, 0, 0, 1.80851, 395.864, -508.03)"/><path style="opacity:1;fill:#ccc;fill-opacity:1;fill-rule:nonzero;stroke:none;stroke-width:2;stroke-linecap:round;stroke-linejoin:round;stroke-miterlimit:4;stroke-dasharray:2,2;stroke-dashoffset:0;stroke-opacity:1" id="path3175" d="M 230.3307 628.35333 A 27.063858 27.063858 0 1 1 176.20299,628.35333 A 27.063858 27.063858 0 1 1 230.3307 628.35333 z" transform="matrix(0.787234, 0, 0, 0.787234, 603.456, 133.692)"/><rect style="opacity:.6;fill:#ccc;fill-opacity:1;fill-rule:nonzero;stroke:#000;stroke-width:1.77165;stroke-linecap:round;stroke-linejoin:round;stroke-miterlimit:4;stroke-dasharray:none;stroke-dashoffset:0;stroke-opacity:1" id="rect3181" width="121.337" height="84.692" x="159.958" y="389.041" rx="9.188" ry="9.188"/><rect style="opacity:.6;fill:#ccc;fill-opacity:1;fill-rule:nonzero;stroke:#000;stroke-width:1.00874;stroke-linecap:round;stroke-linejoin:round;stroke-miterlimit:4;stroke-dasharray:none;stroke-dashoffset:0;stroke-opacity:1" id="rect4170" width="23.579" height="158.815" x="987.699" y="396.376" rx="3.193" ry="3.193"/><rect style="opacity:1;fill:#280b0b;fill-opacity:1;fill-rule:nonzero;stroke:#000;stroke-width:1.77165;stroke-linecap:round;stroke-linejoin:round;stroke-miterlimit:4;stroke-dasharray:none;stroke-dashoffset:0;stroke-opacity:1" id="rect4176" width="40.308" height="41.459" x="980.633" y="608.199" rx="4.895" ry="5.641"/><rect style="opacity:1;fill:#280b0b;fill-opacity:1;fill-rule:nonzero;stroke:#000;stroke-width:1.77165;stroke-linecap:round;stroke-linejoin:round;stroke-miterlimit:4;stroke-dasharray:none;stroke-dashoffset:0;stroke-opacity:1" id="rect4178" width="114.014" height="41.459" x="47.218" y="608.199" rx="4.895" ry="5.641"/><rect style="opacity:1;fill:none;fill-opacity:1;fill-rule:nonzero;stroke:#000;stroke-width:1.77165;stroke-linecap:round;stroke-linejoin:round;stroke-miterlimit:4;stroke-dasharray:none;stroke-dashoffset:0;stroke-opacity:1" id="rect4184" width="161.231" height="78.312" x="499.61" y="560.982" rx="7.944" ry="7.944"/><rect style="opacity:1;fill:none;fill-opacity:1;fill-rule:nonzero;stroke:#000;stroke-width:1.77165;stroke-linecap:round;stroke-linejoin:round;stroke-miterlimit:4;stroke-dasharray:none;stroke-dashoffset:0;stroke-opacity:1" id="rect4186" width="161.231" height="78.312" x="330.317" y="560.982" rx="7.944" ry="7.944"/><rect style="opacity:.6;fill:#ccc;fill-opacity:1;fill-rule:nonzero;stroke:#000;stroke-width:1.77165;stroke-linecap:round;stroke-linejoin:round;stroke-miterlimit:4;stroke-dasharray:none;stroke-dashoffset:0;stroke-opacity:1" id="rect2197" width="121.337" height="84.692" x="296.123" y="389.041" rx="9.188" ry="9.188"/><rect style="opacity:.6;fill:#ccc;fill-opacity:1;fill-rule:nonzero;stroke:#000;stroke-width:1.77165;stroke-linecap:round;stroke-linejoin:round;stroke-miterlimit:4;stroke-dasharray:none;stroke-dashoffset:0;stroke-opacity:1" id="rect2199" width="121.337" height="84.692" x="432.288" y="389.041" rx="9.188" ry="9.188"/><rect style="opacity:.6;fill:#ccc;fill-opacity:1;fill-rule:nonzero;stroke:#000;stroke-width:1.77165;stroke-linecap:round;stroke-linejoin:round;stroke-miterlimit:4;stroke-dasharray:none;stroke-dashoffset:0;stroke-opacity:1" id="rect2201" width="121.337" height="84.692" x="568.453" y="389.041" rx="9.188" ry="9.188"/><rect style="opacity:.6;fill:#ccc;fill-opacity:1;fill-rule:nonzero;stroke:#000;stroke-width:1.77165;stroke-linecap:round;stroke-linejoin:round;stroke-miterlimit:4;stroke-dasharray:none;stroke-dashoffset:0;stroke-opacity:1" id="rect2203" width="121.337" height="84.692" x="704.617" y="388.48" rx="9.188" ry="9.188"/><g id="g2378" transform="translate(-0.000273234, 0.000265655)"><g id="g2370"><path style="fill:#ff0;fill-opacity:1;fill-rule:nonzero;stroke:#000;stroke-width:1.77165;stroke-linecap:round;stroke-linejoin:round;stroke-miterlimit:4;stroke-dasharray:none;stroke-dashoffset:0;stroke-opacity:1" id="path2351" d="M 915.98701,388.48039 C 910.89667,388.48039 906.79951,392.57753 906.79951,397.66789 L 906.79951,616.54289 C 906.79951,621.63323 910.89665,625.73036 915.98701,625.73039 L 967.86201,625.73039 C 972.95235,625.73039 977.04952,621.63321 977.04951,616.54289 L 977.04951,397.66789 C 977.04951,392.57755 972.95237,388.48039 967.86201,388.48039 L 915.98701,388.48039 z M 924.04951,397.69914 L 960.95576,397.69914 C 966.04613,397.69914 970.14326,401.7963 970.14326,406.88664 L 970.14326,519.79289 C 970.14327,524.8832 966.0461,528.98039 960.95576,528.98039 L 924.04951,528.98039 C 918.95915,528.98041 914.86201,524.88323 914.86201,519.79289 L 914.86201,406.88664 C 914.86201,401.79632 918.95917,397.69914 924.04951,397.69914 z"/><rect style="opacity:.6;fill:#ccc;fill-opacity:1;fill-rule:nonzero;stroke:#000;stroke-width:1.77165;stroke-linecap:round;stroke-linejoin:round;stroke-miterlimit:4;stroke-dasharray:none;stroke-dashoffset:0;stroke-opacity:1" id="rect2353" width="55.279" height="131.288" x="914.872" y="397.701" rx="9.188" ry="9.188"/></g><g id="g2374"><path style="fill:#ff0;fill-opacity:1;fill-rule:nonzero;stroke:#000;stroke-width:1.77165;stroke-linecap:round;stroke-linejoin:round;stroke-miterlimit:4;stroke-dasharray:none;stroke-dashoffset:0;stroke-opacity:1" id="path2284" d="M 845.9886,388.48039 C 840.89826,388.48039 836.8011,392.57753 836.8011,397.66789 L 836.8011,616.54289 C 836.8011,621.63323 840.89824,625.73036 845.9886,625.73039 L 897.8636,625.73039 C 902.95394,625.73039 907.05111,621.63321 907.0511,616.54289 L 907.0511,397.66789 C 907.0511,392.57755 902.95396,388.48039 897.8636,388.48039 L 845.9886,388.48039 z M 854.0511,397.69914 L 890.95735,397.69914 C 896.04772,397.69914 900.14485,401.7963 900.14485,406.88664 L 900.14485,519.79289 C 900.14486,524.8832 896.04769,528.98039 890.95735,528.98039 L 854.0511,528.98039 C 848.96074,528.98041 844.8636,524.88323 844.8636,519.79289 L 844.8636,406.88664 C 844.8636,401.79632 848.96076,397.69914 854.0511,397.69914 z"/><rect style="opacity:.6;fill:#ccc;fill-opacity:1;fill-rule:nonzero;stroke:#000;stroke-width:1.77165;stroke-linecap:round;stroke-linejoin:round;stroke-miterlimit:4;stroke-dasharray:none;stroke-dashoffset:0;stroke-opacity:1" id="rect2286" width="55.279" height="131.288" x="844.874" y="397.701" rx="9.188" ry="9.188"/></g></g></g></g></svg>